HIERARCHY
ROOT Hip
{
    OFFSET 0.0 0.0 0.0
    CHANNELS 6 Xposition Yposition Zposition Zrotation Xrotation Yrotation
    JOINT RightHip
    {
        OFFSET -10.091033935546875 0.0 0.0
        CHANNELS 3 Zrotation Xrotation Yrotation
        JOINT RightKnee
        {
            OFFSET 0.0 0.0 -33.60024642944336
            CHANNELS 3 Zrotation Xrotation Yrotation
            JOINT RightAnkle
            {
                OFFSET 0.0 0.0 -38.23712158203125
                CHANNELS 3 Zrotation Xrotation Yrotation
                End Site
                {
                    OFFSET 0.0 -15.294848442077637 0.0
                }
            }
        }
    }
    JOINT LeftHip
    {
        OFFSET 10.091033935546875 0.0 0.0
        CHANNELS 3 Zrotation Xrotation Yrotation
        JOINT LeftKnee
        {
            OFFSET 0.0 0.0 -33.60024642944336
            CHANNELS 3 Zrotation Xrotation Yrotation
            JOINT LeftAnkle
            {
                OFFSET 0.0 0.0 -38.23712158203125
                CHANNELS 3 Zrotation Xrotation Yrotation
                End Site
                {
                    OFFSET 0.0 -15.294848442077637 0.0
                }
            }
        }
    }
    JOINT Spine
    {
        OFFSET 0.0 0.0 38.4281005859375
        CHANNELS 3 Zrotation Xrotation Yrotation
        JOINT Thorax
        {
            OFFSET 0.0 0.0 12.416765213012695
            CHANNELS 3 Zrotation Xrotation Yrotation
            JOINT Neck
            {
                OFFSET 0.0 0.0 0.0
                CHANNELS 3 Zrotation Xrotation Yrotation
                End Site
                {
                    OFFSET 0.0 0.0 0.0
                }
            }
            JOINT LeftShoulder
            {
                OFFSET 18.142192840576172 0.0 0.0
                CHANNELS 3 Zrotation Xrotation Yrotation
                JOINT LeftElbow
                {
                    OFFSET 28.145450592041016 0.0 0.0
                    CHANNELS 3 Zrotation Xrotation Yrotation
                    JOINT LeftWrist
                    {
                        OFFSET 22.194902420043945 0.0 0.0
                        CHANNELS 3 Zrotation Xrotation Yrotation
                        End Site
                        {
                            OFFSET 8.877960205078125 0.0 0.0
                        }
                    }
                }
            }
            JOINT RightShoulder
            {
                OFFSET -18.142192840576172 0.0 0.0
                CHANNELS 3 Zrotation Xrotation Yrotation
                JOINT RightElbow
                {
                    OFFSET -28.145450592041016 0.0 0.0
                    CHANNELS 3 Zrotation Xrotation Yrotation
                    JOINT RightWrist
                    {
                        OFFSET -22.194902420043945 0.0 0.0
                        CHANNELS 3 Zrotation Xrotation Yrotation
                        End Site
                        {
                            OFFSET -8.877960205078125 0.0 0.0
                        }
                    }
                }
            }
        }
    }
}
MOTION
Frames: 7
Frame Time: 0.03333333333333333
3.1540298461914062 61.89312744140625 -54.741851806640625 119.94696421300918 -64.2852490789774 119.52588510567851 -1.4887799880717625 -37.69923332441483 7.339644176687332 33.778063831268284 73.08091808559112 -41.51352261904829 0.0 6.559894030518502e-15 0.0 -1.611867819886737 -42.99111382645269 -5.215803905855298 -14.83486227383512 79.58294400305924 17.74229962198118 1.590277340731758e-15 -3.975693351829395e-16 5.517382872562698e-33 -0.4894943787019557 -15.084376492431268 1.0413051731731617 -1.4502413437572814 3.09662601698708e-07 5.358871905432882e-07 -14.043511542121314 15.390425630803819 2.6156541387976597 -45.73700404341608 33.86980714565417 96.76517877168459 -61.3410905537106 -2.251248688880511e-06 -4.527517518882649e-06 6.3611093629270335e-15 3.1805546814635168e-15 6.3611093629270335e-15 55.41641295017772 19.872586383020348 -97.75352555375818 45.43967304928559 2.0789459563627787e-06 2.926804010837072e-07 0.0 7.951386703658792e-16 0.0
3.1966705322265625 61.87598419189453 -54.66075134277344 119.69437963600414 -63.90109878114511 119.28392908005486 -1.6989035680397238 -37.63956263115405 7.588956143190328 35.54179922358421 72.99889816243703 -43.42506781036906 1.5902773407317584e-15 -6.7586786981099735e-15 9.379550883356588e-32 -1.7574462524939714 -42.858637322114724 -5.046583241503536 -12.243902553592639 79.73710947213362 15.029387072418308 -1.5902773407317582e-15 3.9756933518293955e-16 7.951386703658791e-16 -0.5444497355542071 -15.017365417724521 1.1356823833992244 -1.9228486106526195 7.644113791068548e-06 4.603815609061565e-07 -14.11408472851848 15.369827787322054 2.5689091299270252 -45.66544558459745 33.94228933286019 96.94416432970186 -61.3402679238582 -5.143783129397133e-07 7.786902272374011e-07 0.0 -3.1805546814635176e-15 0.0 55.68551185454412 19.814949716666163 -97.74833799485918 45.352469342262 6.955528914583903e-07 6.546844101128016e-07 -2.2069531490250793e-32 -7.95138670365879e-16 -3.180554681463516e-15
3.2198486328125 61.86444854736328 -54.621124267578125 119.62305029727248 -63.75614894477808 119.20850561244579 -1.7485318397238154 -37.697050691414 7.851429045357967 37.12453775758643 73.09067821217126 -45.098590921155484 -3.1805546814635168e-15 0.0 0.0 -1.877744752997603 -42.708302190141524 -5.030336770149568 -11.060255737572755 79.7885761650317 13.863295004184435 -1.5902773407317584e-15 6.3611093629270335e-15 8.827812596100317e-32 -0.5684186415852693 -14.953116866660116 1.173564426348937 -2.123556300245089 -3.5943591907591107e-06 -3.3053864340654383e-07 -14.219657378827245 15.43102628999211 2.5155333423164983 -45.910845692992936 33.83367731819885 97.1471319263039 -61.13583682768978 -2.0147996135855555e-06 3.914766665584365e-06 -1.7655625192200634e-31 -3.1805546814635168e-15 -6.3611093629270335e-15 55.83043033327408 19.752185338288992 -97.64690359507536 45.30987633167087 1.2463313632813166e-07 -2.8564302398347946e-06 0.0 0.0 0.0
3.2507705688476562 61.8409423828125 -54.57957458496094 119.47305183214792 -63.54097753312271 119.04846412569927 -1.7782031774732727 -37.716628803799395 8.173006657992955 38.44730013699108 73.20864760276187 -46.64020537106713 3.1805546814635168e-15 3.975693351829396e-16 -1.1034765745125397e-32 -1.6778717750073333 -42.765151949766 -4.697807069126555 -10.264539362407316 79.89412091890512 12.793834539687511 -1.5902773407317588e-15 -1.1034765745125397e-32 7.951386703658794e-16 -0.5390575418538868 -14.887950839131483 1.2705566606830254 -2.3972138096518827 -3.948998410969162e-06 1.3131949749414554e-07 -14.352153762632227 15.527323851428596 2.4599600985516665 -46.126598796222495 33.771928602002546 97.2551104821934 -60.94722018106869 -5.98294186864122e-07 6.9403404731252195e-06 0.0 -1.5902773407317582e-15 0.0 55.94453880996242 19.719971191776764 -97.59720027112704 45.40276366925715 -3.985518722141387e-06 7.910812538725118e-07 -2.2069531490250793e-32 7.951386703658792e-16 3.1805546814635168e-15
3.2315826416015625 61.82234191894531 -54.544830322265625 119.26532098443163 -63.341778555042296 118.88265804957399 -1.8365576013667069 -37.748631958770055 8.206569041119083 38.83403534724666 73.32335379407989 -47.24555166222246 -1.5902773407317588e-15 0.0 0.0 -1.4213771415518122 -42.88675778238794 -4.382215314096462 -10.119325135414188 79.94004164854734 12.299645486111839 3.1805546814635168e-15 1.1034765745125397e-31 3.975693351829396e-15 -0.5073331513802267 -14.848867872125647 1.3909048658964158 -2.656655008062617 1.2862370385148907e-06 -1.8297848000955253e-07 -14.482751112952583 15.639818352329172 2.370621754002524 -46.45856526252694 33.858851284696826 97.26468545487425 -61.04845917527877 -3.1382359212228913e-06 -2.236584967300687e-06 -1.7655625192200634e-31 3.1805546814635176e-15 6.361109362927035e-15 55.86907796030967 19.6810019200958 -97.55309905013051 45.46766276511619 -2.5593132908023066e-06 3.395788475652021e-08 6.3611093629270335e-15 -2.3854160110976376e-15 1.3241718894150476e-31
3.30291748046875 61.80448913574219 -54.51788330078125 119.19643421805769 -63.1514800444101 118.76959321475981 -1.8203846570577713 -37.67607491884502 8.466936937451612 39.398994889936326 73.21560615921167 -48.04643705269512 1.5902773407317584e-15 2.2069531490250793e-32 1.5902773407317584e-15 -1.5375154466967154 -42.74347270095184 -4.224389578003666 -7.952911355112837 79.89649404941946 10.149041702628123 0.0 6.3611093629270335e-15 0.0 -0.51953541107771 -14.764834645669572 1.378604974492506 -2.8156168661957452 -6.274931950076586e-06 1.1332947764060927e-06 -14.711369250519047 15.695178632681257 2.3453607492858994 -46.73390828824291 33.917625704758905 97.3725294667566 -61.20269757831605 -1.9583311562111774e-08 -2.4883643992459e-06 -6.3611093629270335e-15 -3.1805546814635168e-15 6.3611093629270335e-15 55.82947677237079 19.766869905486036 -97.41609970133271 45.548227882858 -6.159291786396031e-07 -2.716157372281507e-07 0.0 0.0 0.0
3.3287811279296875 61.80598449707031 -54.53352355957031 119.33802384649555 -63.26724847418001 118.88114669322607 -1.8312590122881085 -37.77847162976592 8.548818264256285 39.6863793119945 73.3118208606013 -48.318902246894815 0.0 0.0 0.0 -1.4496031029597662 -42.643942411339005 -4.24242104384358 -8.176763620306 79.76784024148515 10.414813593621144 0.0 0.0 0.0 -0.5073431758942651 -14.768888778795555 1.2735774243815592 -2.631405228294433 1.864212355064118e-07 2.1759103842835e-06 -14.848525255864768 15.731354214802582 2.361659107149621 -46.947123816016465 33.94092488205363 97.50704542480095 -61.16603813640007 3.229533295862426e-06 -1.919158400644746e-07 0.0 0.0 0.0 55.77186287172858 19.82686385687736 -97.3637779167152 45.63776781220782 1.4276952502334226e-06 -5.195604768433307e-07 6.361109362927033e-15 -7.951386703658792e-16 -3.1805546814635164e-15
